<svg width="120" height="45" viewBox="0 0 120 45" fill="none" xmlns="http://www.w3.org/2000/svg">
<path d="M11.2 37.576C7.488 37.576 4.72 36.6 2.896 34.648C1.104 32.664 0.144 29.528 0.0160002 25.24L7.36 24.136C7.392 26.6 7.68 28.376 8.224 29.464C8.8 30.52 9.648 31.048 10.768 31.048C12.208 31.048 12.928 30.104 12.928 28.216C12.928 26.712 12.576 25.416 11.872 24.328C11.2 23.24 10.128 22.072 8.656 20.824L5.296 17.896C3.632 16.488 2.336 15 1.408 13.432C0.512 11.832 0.0640001 9.944 0.0640001 7.768C0.0640001 4.504 1.024 1.992 2.944 0.231998C4.896 -1.528 7.568 -2.408 10.96 -2.408C14.64 -2.408 17.136 -1.336 18.448 0.808C19.792 2.952 20.512 5.56 20.608 8.632L13.216 9.544C13.152 7.528 12.96 6.088 12.64 5.224C12.352 4.328 11.696 3.88 10.672 3.88C9.936 3.88 9.36 4.2 8.944 4.84C8.56 5.448 8.368 6.136 8.368 6.904C8.368 8.216 8.656 9.32 9.232 10.216C9.84 11.112 10.8 12.136 12.112 13.288L15.328 16.12C17.248 17.752 18.736 19.48 19.792 21.304C20.848 23.128 21.376 25.288 21.376 27.784C21.376 29.608 20.944 31.272 20.08 32.776C19.248 34.248 18.064 35.416 16.528 36.28C14.992 37.144 13.216 37.576 11.2 37.576ZM48.5283 44.632C47.3763 44.152 46.0003 43.208 44.4003 41.8C42.8003 40.424 41.5203 39 40.5603 37.528C40.4003 37.56 40.1283 37.576 39.7443 37.576C35.5523 37.576 32.5603 36.504 30.7683 34.36C28.9763 32.184 28.0803 28.984 28.0803 24.76V10.312C28.0803 6.088 28.9763 2.92 30.7683 0.808C32.5603 -1.336 35.5523 -2.408 39.7443 -2.408C43.9683 -2.408 46.9763 -1.336 48.7683 0.808C50.5923 2.952 51.5043 6.12 51.5043 10.312V24.76C51.5043 27.608 51.0883 29.992 50.2563 31.912C49.4563 33.8 48.1603 35.208 46.3683 36.136C48.0003 37.896 49.3283 39.032 50.3523 39.544L48.5283 44.632ZM39.7443 31.48C40.9603 31.48 41.7603 31.08 42.1443 30.28C42.5283 29.448 42.7203 28.328 42.7203 26.92V8.2C42.7203 6.76 42.5283 5.64 42.1443 4.84C41.7603 4.04 40.9603 3.64 39.7443 3.64C38.5283 3.64 37.7443 4.04 37.3923 4.84C37.0403 5.608 36.8643 6.728 36.8643 8.2V26.92C36.8643 28.328 37.0403 29.448 37.3923 30.28C37.7443 31.08 38.5283 31.48 39.7443 31.48ZM58.2213 -1.88H65.5173L67.8213 20.776L70.7493 -1.832H76.4613L79.5333 20.632L81.8853 -1.88H89.0853L84.4293 37H76.9413L73.6293 13.528L70.5093 37H62.9253L58.2213 -1.88ZM96.346 -1.88H106.186C109.546 -1.88 112.17 -1.464 114.058 -0.632002C115.946 0.199999 117.274 1.512 118.042 3.304C118.842 5.064 119.242 7.432 119.242 10.408V24.52C119.242 27.528 118.842 29.928 118.042 31.72C117.274 33.512 115.946 34.84 114.058 35.704C112.202 36.568 109.61 37 106.282 37H96.346V-1.88ZM106.282 31.048C107.53 31.048 108.442 30.872 109.018 30.52C109.626 30.136 110.01 29.608 110.17 28.936C110.33 28.232 110.41 27.208 110.41 25.864V8.92C110.41 7.672 110.314 6.728 110.122 6.088C109.962 5.416 109.578 4.92 108.97 4.6C108.394 4.28 107.482 4.12 106.234 4.12H104.938V31.048H106.282Z" fill="white"/>
</svg>
